HIERARCHY
ROOT Hips
{
 OFFSET 0.000000 0.000000 0.000000
 CHANNELS 6 Xposition Yposition Zposition Yrotation Xrotation Zrotation
 JOINT Chest
 {
  OFFSET 0.000000 11.395451 -0.039534
  CHANNELS 3 Yrotation Xrotation Zrotation
  JOINT Chest2
  {
   OFFSET 0.000000 9.398669 0.071813
   CHANNELS 3 Yrotation Xrotation Zrotation
   JOINT Chest3
   {
    OFFSET 0.000000 8.489801 0.000000
    CHANNELS 3 Yrotation Xrotation Zrotation
    JOINT Chest4
    {
     OFFSET 0.000000 8.489801 0.000000
     CHANNELS 3 Yrotation Xrotation Zrotation
     JOINT Neck
     {
      OFFSET 0.000000 12.404889 0.000000
      CHANNELS 3 Yrotation Xrotation Zrotation
      JOINT Head
      {
       OFFSET 0.000000 8.903270 0.092239
       CHANNELS 3 Yrotation Xrotation Zrotation
       End Site
       {
        OFFSET 0.000000 17.592497 0.007158
       }
      }
     }
     JOINT RightCollar
     {
      OFFSET -3.196775 6.966722 0.000000
      CHANNELS 3 Yrotation Xrotation Zrotation
      JOINT RightShoulder
      {
       OFFSET -15.955896 0.000000 0.000000
       CHANNELS 3 Yrotation Xrotation Zrotation
       JOINT RightElbow
       {
        OFFSET -24.792472 0.000000 0.000000
        CHANNELS 3 Yrotation Xrotation Zrotation
        JOINT RightWrist
        {
         OFFSET -20.900115 0.000000 0.025002
         CHANNELS 3 Yrotation Xrotation Zrotation
         End Site
         {
          OFFSET -16.056692 0.000000 0.000000
         }
        }
       }
      }
     }
     JOINT LeftCollar
     {
      OFFSET 3.196775 6.966722 0.000000
      CHANNELS 3 Yrotation Xrotation Zrotation
      JOINT LeftShoulder
      {
       OFFSET 15.955896 0.000000 0.000000
       CHANNELS 3 Yrotation Xrotation Zrotation
       JOINT LeftElbow
       {
        OFFSET 24.792472 0.000000 0.000000
        CHANNELS 3 Yrotation Xrotation Zrotation
        JOINT LeftWrist
        {
         OFFSET 20.900115 0.000000 0.025002
         CHANNELS 3 Yrotation Xrotation Zrotation
         End Site
         {
          OFFSET 16.056692 0.000000 0.000000
         }
        }
       }
      }
     }
    }
   }
  }
 }
 JOINT RightHip
 {
  OFFSET -9.568995 0.193718 0.019767
  CHANNELS 3 Yrotation Xrotation Zrotation
  JOINT RightKnee
  {
   OFFSET 0.000000 -56.649296 0.015402
   CHANNELS 3 Yrotation Xrotation Zrotation
   JOINT RightAnkle
   {
    OFFSET 0.000000 -41.365147 0.021264
    CHANNELS 3 Yrotation Xrotation Zrotation
    JOINT RightToe
    {
     OFFSET 0.000000 -7.465940 17.672538
     CHANNELS 3 Yrotation Xrotation Zrotation
     End Site
     {
      OFFSET 0.000000 -1.736315 7.837145
     }
    }
   }
  }
 }
 JOINT LeftHip
 {
  OFFSET 9.568995 0.193718 0.019767
  CHANNELS 3 Yrotation Xrotation Zrotation
  JOINT LeftKnee
  {
   OFFSET 0.000000 -56.649296 0.015402
   CHANNELS 3 Yrotation Xrotation Zrotation
   JOINT LeftAnkle
   {
    OFFSET 0.000000 -41.365147 0.021264
    CHANNELS 3 Yrotation Xrotation Zrotation
    JOINT LeftToe
    {
     OFFSET 0.000000 -7.465940 17.672538
     CHANNELS 3 Yrotation Xrotation Zrotation
     End Site
     {
      OFFSET 0.000000 -1.736315 7.837145
     }
    }
   }
  }
 }
}
MOTION
Frames: 7
Frame Time: 0.016667
22.695436 105.367190 387.258889 -170.946816 -2.202766 -1.461652 2.468793 6.562021 2.708423 1.057005 2.930768 1.166738 1.056999 2.930770 1.166743 0.786976 2.200113 0.869800 1.630252 11.430689 -1.259911 3.683662 -14.893436 -3.134430 1.104489 -0.230215 5.791373 25.343392 -15.803920 37.894188 30.318028 -39.271781 32.287528 -8.777422 -21.698906 8.367272 2.727358 2.783697 -5.331504 7.758598 -11.699034 -56.398453 -30.995879 -55.663589 -54.901325 18.478206 -15.768202 1.721496 -2.699548 5.521382 -0.239144 -8.480943 12.571972 -0.183085 2.640002 -15.605747 4.408768 0.000337 -0.019453 -0.998338 15.207109 -16.987676 -3.810541 6.927826 4.261721 -0.932510 6.672160 -1.152759 -5.951368 -0.000000 0.000000 0.000000
22.490786 105.141283 385.735245 -170.563688 -2.384640 -1.715959 2.532396 6.552702 2.762321 1.084513 2.927282 1.189809 1.084500 2.927281 1.189815 0.807489 2.197588 0.886976 1.640371 11.488520 -1.083407 3.623392 -14.793397 -2.797339 1.028269 -0.174167 5.930469 25.310162 -15.789203 38.059121 30.166177 -39.207733 32.374135 -8.799790 -21.635525 8.333096 2.611677 2.899029 -5.316577 7.796476 -11.723229 -56.126566 -30.806549 -55.637051 -55.156997 18.552196 -15.754568 1.827289 -2.019384 6.303570 0.031086 -9.362987 13.339781 -0.227884 2.476158 -16.360423 4.893727 -0.006919 -0.123080 -2.393724 16.220086 -15.776823 -4.298040 4.542359 1.017636 -1.061283 8.716725 -1.234272 -6.417418 0.000000 0.000000 0.000000
22.260530 104.917515 384.215727 -170.210248 -2.487787 -1.954856 2.601282 6.493675 2.785932 1.115151 2.901588 1.199670 1.115151 2.901588 1.199670 0.830488 2.178398 0.894265 1.626066 11.547953 -0.926061 3.524808 -14.690154 -2.486579 0.961769 -0.060179 6.057219 25.095143 -15.881428 38.309960 30.025195 -39.060484 32.520843 -8.802911 -21.567222 8.296527 2.524374 3.010757 -5.293616 7.811731 -11.772235 -55.865286 -30.649153 -55.578854 -55.362998 18.644205 -15.734423 1.926258 -1.388965 6.806314 0.254695 -10.202844 14.518988 -0.328338 2.410883 -17.022853 5.490575 -0.000234 -0.749317 -3.573864 16.395430 -15.064432 -4.501815 3.177524 -0.520490 -1.046701 9.200981 -1.401930 -5.764020 -0.000000 0.000000 0.000000
22.014818 104.688436 382.725569 -169.818203 -2.398712 -2.197901 2.653853 6.333915 2.787152 1.139552 2.830915 1.200474 1.139574 2.830914 1.200462 0.848960 2.125439 0.894875 1.573738 11.600860 -0.802360 3.368511 -14.598654 -2.224371 0.923325 0.174442 6.143482 24.572376 -16.202410 38.674166 29.893674 -38.773952 32.802925 -8.774573 -21.475316 8.241999 2.509461 3.167890 -5.250266 7.762597 -11.901534 -55.651729 -30.576826 -55.479938 -55.465158 18.755123 -15.714245 2.016469 -0.755797 6.911991 0.465762 -11.097383 16.132427 -0.505392 2.452860 -17.662100 6.191099 0.048856 -2.034282 -4.225874 15.108051 -15.268083 -4.252950 4.670566 0.608725 -1.010534 5.759397 -1.712699 -2.976660 0.000000 -0.000000 0.000000
21.743499 104.461496 381.239539 -169.457404 -2.231194 -2.423209 2.711009 6.125112 2.756259 1.166706 2.738285 1.187338 1.166725 2.738282 1.187324 0.869570 2.055989 0.885086 1.496939 11.656703 -0.698292 3.174051 -14.501343 -1.989348 0.896594 0.467263 6.219212 23.862870 -16.624599 39.129846 29.775252 -38.402893 33.142205 -8.726914 -21.378137 8.185053 2.523434 3.320506 -5.198057 7.689556 -12.054511 -55.449534 -30.537294 -55.350206 -55.517433 18.884224 -15.687610 2.099845 -0.181400 6.741564 0.608666 -11.955760 18.157328 -0.749986 2.611992 -18.214167 6.986727 0.142543 -3.838174 -4.671141 12.980792 -15.955977 -3.724402 7.207648 3.425630 -0.866489 0.888813 -1.831968 1.079186 0.000000 -0.000000 -0.000000
21.414877 104.288322 379.714800 -169.328755 -2.204174 -2.539627 2.829015 5.975815 2.659605 1.221268 2.672033 1.143895 1.221268 2.672033 1.143895 0.910784 2.006328 0.852426 1.426099 11.715768 -0.607816 2.997094 -14.396936 -1.783149 0.865763 0.744026 6.321779 23.239602 -16.948984 39.631184 29.687846 -38.041848 33.338720 -8.655502 -21.319527 8.170113 2.508085 3.390273 -5.149601 7.792104 -12.137457 -55.288785 -30.478681 -55.155312 -55.588738 19.013984 -15.626486 2.153412 0.187267 6.460189 0.488680 -12.512404 20.643993 -1.022979 2.940109 -18.345973 7.909470 0.283686 -6.183418 -5.248516 11.369612 -16.165342 -3.344275 7.418449 5.456779 -0.669152 -0.779511 -1.182532 4.034720 0.000000 0.000000 0.000000
21.024376 104.180418 378.099956 -169.606634 -2.446270 -2.528996 3.077389 5.937482 2.485658 1.333962 2.655256 1.063764 1.333956 2.655265 1.063774 0.995663 1.993800 0.791905 1.369400 11.774749 -0.527451 2.851879 -14.291580 -1.602728 0.807181 0.965105 6.501034 22.869541 -17.035983 40.152425 29.653375 -37.739947 33.253894 -8.538034 -21.344323 8.232741 2.456492 3.299481 -5.119848 8.199720 -12.102681 -55.170359 -30.340528 -54.830176 -55.756162 19.142217 -15.501747 2.154461 0.282394 6.218151 0.045904 -12.533294 23.617030 -1.315688 3.492306 -18.154217 9.030338 0.494210 -8.994600 -6.152629 10.949097 -15.445863 -3.364625 2.294879 5.565906 -0.417134 4.164728 0.599275 4.368966 0.000000 -0.000000 -0.000000
